<svg id="Layer_1" data-name="Layer 1" xmlns="http://www.w3.org/2000/svg" viewBox="0 0 1252.75451 268.68606"><defs><style>.cls-1{fill:none;stroke:#009f76;stroke-miterlimit:10;stroke-width:15px;}.cls-2{fill:#009f76;}</style></defs><title>ristiaal</title><path class="cls-1" d="M1246.58093,15.70088c-12.76553,18.50524-29.09879,7.238-41.86432,25.74325-12.76706,18.50746,3.5662,29.77468-9.20086,48.28213-12.76726,18.50775-29.10051,7.24053-41.86777,25.74827-12.76785,18.5086,3.56541,29.77583-9.20244,48.28443-12.76745,18.508-29.10071,7.24079-41.86815,25.74881-12.76921,18.51057,3.56405,29.77779-9.20515,48.28836s-29.10246,7.24334-41.87166,25.7539"/><path class="cls-2" d="M23.97731,52.00984a6.08522,6.08522,0,0,0,.14687,2.10617V33.235a6.23611,6.23611,0,0,0-.14736,1.92129Q23.972,43.58321,23.97731,52.00984Z"/><path class="cls-2" d="M46.20994,81.73369c1.36794,1.85352,2.79847,3.66045,4.18986,5.497q5.46228,7.21017,10.91,14.43134c2.24107,2.97672,4.41745,6.00277,6.69281,8.9528,1.93051,2.50295,1.60975,2.27715,4.55526,2.28119q8.96994.01189,17.93973.00178c.47345,0,.948.00841,1.42051-.017.46714-.02508,1.00238.01423,1.27994-.44951.31607-.52845-.17776-.86085-.42233-1.241-.09592-.149-.2051-.29-.31526-.42913-2.38406-3.01344-4.7534-6.03868-7.15816-9.0353-2.3315-2.9049-4.70407-5.77664-7.0498-8.67022-1.6366-2.01834-3.28955-4.02471-4.87391-6.08349-.83108-1.08-1.75694-2.08142-2.57573-3.1616-1.50122-1.97985-3.02412-3.938-4.6439-5.8221a7.89459,7.89459,0,0,1-.70912-1.01839.64819.64819,0,0,1,.2876-1.03327c1.10411-.439,2.1115-1.05786,3.16257-1.59568a37.5325,37.5325,0,0,0,7.99248-5.5468,34.32688,34.32688,0,0,0,7.90093-9.954,26.73457,26.73457,0,0,0,2.29575-5.93112,20.21848,20.21848,0,0,0,.99688-4.471,7.14437,7.14437,0,0,0,.46908-3.30588c-.00017-1.42019.00388-2.84053-.01375-4.26071a3.65726,3.65726,0,0,0-.13361-1.40255c-.69036-1.532-.28468-3.31446-1.15086-4.79222a21.45263,21.45263,0,0,0-2.39523-6.81073,26.13448,26.13448,0,0,0-3.522-5.29867A28.35277,28.35277,0,0,0,73.83813,16.143a39.332,39.332,0,0,0-8.83634-4.03441c-2.43954-.74778-4.93214-1.22317-7.39886-1.82715A28.91194,28.91194,0,0,0,50.70907,9.819q-8.13094-.01433-16.26221-.01779v22.8557q2.542.00072,5.08386-.00065v.01941c4.14149,0,8.28364.04691,12.424-.02167a28.39768,28.39768,0,0,1,5.26049.703,5.69357,5.69357,0,0,0,.69635.13328,13.55878,13.55878,0,0,1,5.67183,1.85692,7.9935,7.9935,0,0,1,4.08164,4.678A11.26066,11.26066,0,0,1,64.36319,52.223a19.07165,19.07165,0,0,1-8.29544,3.78532,36.25287,36.25287,0,0,1-6.499.84014c-1.4121.05435-2.81578.31444-4.24195.27789a25.56371,25.56371,0,0,1-3.89142-.23648,10.29689,10.29689,0,0,0-1.76973-.08767,46.65344,46.65344,0,0,1-5.21876-.35472V79.935c.16822.01521.33628.032.50466.04626a7.60678,7.60678,0,0,1,1.40466.18537,15.20734,15.20734,0,0,0,4.22528.43139c1.06562-.006,2.13351.04691,3.1967-.0021A2.62622,2.62622,0,0,1,46.20994,81.73369Z"/><path class="cls-2" d="M23.97731,52.00984q-.0085-8.4267-.00049-16.85357a6.23611,6.23611,0,0,1,.14736-1.92129V9.7926Q15.39175,9.78824,6.6595,9.78419c-.3552-.00032-.71171-.006-1.06513.02216-.96307.07683-1.20877.32108-1.27315,1.33591-.04141.64863-.02572,1.30129-.02572,1.952Q4.29381,37.23867,4.29469,61.383q0,24.05581.00081,48.11132c0,.65089-.01634,1.30339.02264,1.95218.06293,1.04411.34712,1.31213,1.41922,1.42342a5.12079,5.12079,0,0,0,.53216.02183c5.26939.00162,10.53878.016,15.80817-.006,1.67041-.00679,1.85012-.22289,1.89331-1.82909.01278-.47312.00453-.9469.00453-1.42018q.00024-14.55766.00129-29.11534c.00016-.59153.00016-1.184.03284-1.77409a.80438.80438,0,0,1,.11452-.38077V54.116A6.08522,6.08522,0,0,1,23.97731,52.00984Z"/><path class="cls-2" d="M211.15108,114.63985a10.51477,10.51477,0,0,0,1.2112-.25913,5.45325,5.45325,0,0,1,1.19858-.2973,19.59729,19.59729,0,0,0,4.5297-.78255,46.64174,46.64174,0,0,0,8.20923-2.798,34.73687,34.73687,0,0,0,3.87622-2.14256,22.29193,22.29193,0,0,0,8.70452-9.33956,28.25835,28.25835,0,0,0,1.3791-3.638,17.70969,17.70969,0,0,0,.99024-4.4815,20.57871,20.57871,0,0,0-.45857-7.3982c-.26025-.8437-.5527-1.67656-.82558-2.51573a11.68779,11.68779,0,0,0-3.291-4.97,19.16637,19.16637,0,0,0-5.82744-3.66449c-1.03618-.42185-2.11328-.74276-3.1506-1.16186-1.497-.60463-3.11987-.66577-4.64778-1.1334a14.33267,14.33267,0,0,0-3.85082-.58327,5.21091,5.21091,0,0,1-1.56754-.24279A9.05179,9.05179,0,0,0,215.195,68.8a6.80392,6.80392,0,0,1-1.74352-.27012,9.22783,9.22783,0,0,0-2.79718-.40277,15.0598,15.0598,0,0,1-3.00778-.15285c-1.50849-.35375-3.03252-.45873-4.55412-.66092-2.99031-.3971-6.006-.51469-8.99518-.94285-1.86808-.26754-3.67711-.91374-5.59322-.87152a2.47465,2.47465,0,0,1-.67289-.21028,9.569,9.569,0,0,0-1.36049-.377,7.87861,7.87861,0,0,1-2.63947-1.00739,1.88873,1.88873,0,0,1-1.06255-2.36045,2.05352,2.05352,0,0,1,1.10007-1.31925,10.05327,10.05327,0,0,1,4.03183-1.27266,7.468,7.468,0,0,0,1.5677-.27045,8.042,8.042,0,0,1,2.79459-.40567q6.48277-.00849,12.96522-.01472a12.83848,12.83848,0,0,1,4.21606.46892,7.56429,7.56429,0,0,0,1.57983.19248c.70476.07894,1.41.154,2.11378.23988a48.34548,48.34548,0,0,1,9.28181,2.26436,36.7946,36.7946,0,0,1,11.84072,6.287c.49075.39888.98571,1.10735,1.65763.8162.79744-.34583.48138-1.24776.4859-1.91547.02653-3.96454.01311-7.9294.01343-11.89426q.00048-5.68065-.001-11.36145c-.00016-.53249-.01747-1.06482-.02766-1.59714a1.6403,1.6403,0,0,0-1.03036-1.52856c-.69327-.328-1.39592-.63973-2.10779-.9257a79.15053,79.15053,0,0,0-8.3595-2.3116,5.19163,5.19163,0,0,0-1.23125-.14493,10.94656,10.94656,0,0,1-2.97333-.45727,4.848,4.848,0,0,0-1.219-.22209,15.87716,15.87716,0,0,1-4.37733-.59719,3.432,3.432,0,0,0-1.05818-.08168q-7.99241-.00849-15.98464.00243a5.94891,5.94891,0,0,0-1.75275.21092,11.43279,11.43279,0,0,1-2.616.4343,17.60082,17.60082,0,0,0-1.92177.3117,12.13128,12.13128,0,0,1-1.55864.32949c-2.21956.11759-4.25634.97924-6.36478,1.53389a25.79288,25.79288,0,0,0-5.85024,2.51718c-3.83724,2.119-7.23759,4.7416-9.31836,8.71552-.95062,1.8155-2.00282,3.62842-2.05377,5.78214a3.95035,3.95035,0,0,1-.17291.86586,14.6619,14.6619,0,0,0,.04675,7.85726,2.8118,2.8118,0,0,1,.13716.87168,7.50552,7.50552,0,0,0,.786,3.24733,18.0267,18.0267,0,0,0,3.30751,5.41141,22.87934,22.87934,0,0,0,9.78113,5.87143,16.63608,16.63608,0,0,0,5.14889,1.26409,1.70773,1.70773,0,0,1,.51388.12957,18.69678,18.69678,0,0,0,6.22454,1.20634,6.18947,6.18947,0,0,1,1.23336.13442,51.35964,51.35964,0,0,0,9.872,1.00092,6.74631,6.74631,0,0,1,1.93148.20769,12.779,12.779,0,0,0,3.32578.4804,5.76527,5.76527,0,0,1,1.4095.14283,20.037,20.037,0,0,0,5.28347.53524,4.32869,4.32869,0,0,1,1.74756.23955,8.18786,8.18786,0,0,0,1.88506.47765c.92943.17664,1.84753.41506,2.76628.64361a5.82328,5.82328,0,0,1,2.1733,1.16834,1.53866,1.53866,0,0,1,.57422,1.06238,2.17252,2.17252,0,0,1-.9689,2.30594,5.98162,5.98162,0,0,1-1.58581.75845c-1.41986.42153-2.88323.63164-4.31182.994a9.8986,9.8986,0,0,1-2.45119.34146c-6.03868.00016-12.0785.07279-18.11524-.03721a51.06876,51.06876,0,0,1-6.13217-.82347.59185.59185,0,0,1-.16645-.06082,5.85339,5.85339,0,0,0-2.428-.433,6.58655,6.58655,0,0,1-1.9234-.27029,26.98913,26.98913,0,0,0-3.23422-.931,31.7005,31.7005,0,0,1-8.26407-3.07523,26.32829,26.32829,0,0,1-5.94616-3.8463,4.04458,4.04458,0,0,0-.70734-.53168.983.983,0,0,0-1.57126.75538,12.61187,12.61187,0,0,0-.06066,1.59391q-.00533,11.36176-.00194,22.72339c0,.29584.01521.59217.00372.88753a2.21022,2.21022,0,0,0,1.718,2.36255,55.2008,55.2008,0,0,0,7.44253,2.31046c.98587.19572,1.96043.50709,2.93935.63827,1.75258.23519,3.4864.6166,5.23138.80957,3.40569.37688,6.83758.54268,10.26283.71333,4.50027.22419,8.98985-.18925,13.48267-.3599C208.91826,114.93068,210.03548,114.771,211.15108,114.63985Z"/><path class="cls-2" d="M1046.0222,36.014a2.11181,2.11181,0,0,1-.70443.06777,8.49576,8.49576,0,0,0-2.61407.44886,5.23584,5.23584,0,0,1-1.21229.25719,31.58079,31.58079,0,0,0-5.99032,1.56624,32.94941,32.94941,0,0,0-5.1871,2.27925,38.27574,38.27574,0,0,0-8.06834,5.42694,33.89445,33.89445,0,0,0-4.60063,4.90043,29.70755,29.70755,0,0,0-3.50128,5.54065c-.98147,2.07819-1.78586,4.241-2.63753,6.37868a5.13828,5.13828,0,0,0-.29794,1.37748,8.55877,8.55877,0,0,1-.44264,2.07237,9.29835,9.29835,0,0,0-.28925,1.56058c-.11084.63924-.21618,1.27962-.33341,1.91773a7.67681,7.67681,0,0,0-.26653,1.38929c.02887,3.59542-.491,7.21785.486,10.77073a1.53272,1.53272,0,0,1,.05071.351,14.29155,14.29155,0,0,0,.61058,3.29036c.29289,1.07.44182,2.17847.82323,3.24361a37.26193,37.26193,0,0,0,3.71751,8.01141,32.3154,32.3154,0,0,0,3.55773,4.85757,41.46067,41.46067,0,0,0,8.29027,6.89015,51.69111,51.69111,0,0,0,8.32326,3.93817,54.62957,54.62957,0,0,0,8.92891,2.15906c1.92752.38546,3.90109.23018,5.83415.47054,3.62364.45064,7.20782-.10546,10.80818-.25266.11723-.00485.23256-.04464.34987-.05985,2.4579-.31978,4.85894-.909,7.27014-1.46806a40.94406,40.94406,0,0,0,11.52886-4.93763c1.22366-.72206,2.28891-1.6654,3.46505-2.44375a25.76514,25.76514,0,0,0,4.63977-4.35436,33.27971,33.27971,0,0,0,3.953-5.44554A38.678,38.678,0,0,0,1096.18417,87.8a38.70919,38.70919,0,0,0,.90751-4.148,44.70648,44.70648,0,0,0,.83662-7.92325,33.86736,33.86736,0,0,0-.35391-5.12819c-.25953-1.87211-.5521-3.73954-.837-5.60793a4.3302,4.3302,0,0,0-.15326-.50936,45.59344,45.59344,0,0,0-2.55564-6.9686,30.37538,30.37538,0,0,0-3.1396-5.34007,34.23806,34.23806,0,0,0-4.61959-5.37372c-.845-.74341-1.735-1.42358-2.59746-2.13933a29.76916,29.76916,0,0,0-6.25915-4.00385c-.641-.30425-1.25442-.67062-1.90721-.94511a34.82043,34.82043,0,0,0-4.28016-1.685,24.25012,24.25012,0,0,0-5.68424-1.3495,2.29549,2.29549,0,0,1-.68223-.18973,7.80356,7.80356,0,0,0-2.08668-.394,8.342,8.342,0,0,1-1.57777-.22451,13.3409,13.3409,0,0,0-3.69239-.41862c-1.24331.01213-2.48682.00259-3.73024.00259v-.01423c-.5921,0-1.18451-.01262-1.77624.00226C1049.99188,35.49223,1047.96193,35.26335,1046.0222,36.014Zm4.7788,22.9073v.00453c1.12381,0,2.24766-.00566,3.37144.00113a36.18984,36.18984,0,0,1,8.77394,1.11771,31.447,31.447,0,0,1,6.35269,2.16909c3.62655,1.8155,6.64339,4.31311,8.276,8.15537a13.36635,13.36635,0,0,1,1.07173,4.27364,18.43428,18.43428,0,0,1-.74823,6.83273,12.00509,12.00509,0,0,1-3.92567,5.56847,16.27386,16.27386,0,0,1-5.50579,3.15125,12.71332,12.71332,0,0,1-4.62975,1.05462,1.67634,1.67634,0,0,0-.69877.10158,11.8897,11.8897,0,0,1-4.54955.553c-2.6019.01326-5.20412-.03251-7.80619-.05581a2.32589,2.32589,0,0,1-.70616-.03946c-2.24269-.76153-4.65138-.55562-6.92319-1.33737a31.57479,31.57479,0,0,1-6.89685-3.15545,14.54642,14.54642,0,0,1-6.03869-6.97733,8.43381,8.43381,0,0,1-.91838-3.38385,2.51166,2.51166,0,0,0-.25112-1.02438,4.37037,4.37037,0,0,1-.301-2.08805,15.39979,15.39979,0,0,1,2.15724-7.55187,13.56226,13.56226,0,0,1,5.25208-4.663,24.306,24.306,0,0,1,11.45026-2.71C1048.67125,58.94075,1049.73631,58.92134,1050.801,58.92134Z"/><path class="cls-2" d="M748.51719,114.32928a8.59264,8.59264,0,0,0,1.19316.32011,84.1376,84.1376,0,0,0,10.08345.69424c2.54217-.00178,5.07675-.25282,7.60792-.50806,1.29846-.13086,2.55018-.462,3.82123-.704,1.217-.23146,2.4304-.44207,3.628-.77447a41.38691,41.38691,0,0,0,10.10294-4.23142,38.78829,38.78829,0,0,0,5.407-3.68115c.58579-.49674,1.19308-.96259,1.73423-1.51335a33.38784,33.38784,0,0,0,5.89165-7.49251c.08362-.15609.17938-.30652.27724-.45453a28.88125,28.88125,0,0,0,2.70562-5.75788,33.21831,33.21831,0,0,0,1.68861-6.13153c.49-2.79345.71058-5.61424,1.04937-8.42258.15851-1.31472-.36128-2.5704-.477-3.85875a33.85264,33.85264,0,0,0-.77463-5.95862,24.23354,24.23354,0,0,0-.64151-2.74994c-.28428-.71171-.55934-1.42892-.79792-2.157a34.25616,34.25616,0,0,0-8.7676-13.78256c-.5878-.58117-1.17577-1.16784-1.8134-1.6916a40.06525,40.06525,0,0,0-9.466-5.86625,26.79639,26.79639,0,0,0-4.13535-1.57029c-1.8853-.468-3.69037-1.31973-5.68776-1.31294a1.23239,1.23239,0,0,1-.50685-.15156,6.29367,6.29367,0,0,0-2.419-.4893,4.198,4.198,0,0,1-1.21945-.19685,8.77335,8.77335,0,0,0-3.1485-.42557q-2.13089,0-4.26184.00032c-1.53891.00033-3.07862-.0275-4.61672.00712a51.11047,51.11047,0,0,0-6.45228,1.01014c-.52327.07893-1.032.28873-1.55525.3248a8.43119,8.43119,0,0,0-2.58091.5946,9.16219,9.16219,0,0,1-1.5237.4715,21.03747,21.03747,0,0,0-4.83137,1.72412,43.86764,43.86764,0,0,0-6.7952,3.81184,36.74521,36.74521,0,0,0-6.23472,5.51331,33.96512,33.96512,0,0,0-8.10086,15.732,5.87037,5.87037,0,0,1-.1941.682,19.82314,19.82314,0,0,0-1.01629,5.38763c-.17744,4.48344-.44142,8.991.6077,13.42476.4081,1.72524.76881,3.468,1.30016,5.156a42.49852,42.49852,0,0,0,2.92318,6.45649c1.0797,2.11571,2.72771,3.84937,4.07656,5.78586a5.59894,5.59894,0,0,0,.75578.74681c.51017.49335,1.03441.97294,1.5292,1.481a31.163,31.163,0,0,0,6.72993,5.15342,43.97653,43.97653,0,0,0,6.07581,2.9028,26.97318,26.97318,0,0,0,7.80453,2.23719A5.65761,5.65761,0,0,1,748.51719,114.32928Zm8.3003-22.47121a5.41035,5.41035,0,0,1-1.58226-.14558,11.68723,11.68723,0,0,0-3.66667-.54608,3.06473,3.06473,0,0,1-.87775-.1053c-3.075-1.02938-6.20464-1.92242-8.936-3.77755a15.81434,15.81434,0,0,1-5.10594-5.33733,15.63151,15.63151,0,0,1-1.94547-10.25151,15.22234,15.22234,0,0,1,1.06772-3.90388,13.02149,13.02149,0,0,1,5.78667-6.03351,22.92482,22.92482,0,0,1,7.18785-2.44811,44.92541,44.92541,0,0,1,7.78439-.38578c1.00578,0,2.01147-.00485,3.01716.001a38.38813,38.38813,0,0,1,8.957,1.092,33.60515,33.60515,0,0,1,6.35135,2.20225c4.41955,2.08757,7.65822,5.27764,9.06425,10.09623a24.484,24.484,0,0,1-.07764,7.91339c-.07287.22483-.16668.44336-.23114.67046-1.24387,4.38218-4.30762,7.06953-8.30936,8.85349-1.077.48008-2.21568.82251-3.32659,1.2264a.997.997,0,0,1-.339.09835c-2.2016-.06244-4.27138.83431-6.47857.8335C762.37714,91.9095,759.597,91.96191,756.81749,91.85807Z"/><path class="cls-2" d="M555.78562,93.58315a25.1889,25.1889,0,0,0-2.42668,1.07258,3.29027,3.29027,0,0,1-.80448.35067c-2.19368.43544-4.31877,1.12741-6.56567,1.4011a51.7112,51.7112,0,0,1-8.35.49108c-.95668,0-2.31766.03688-3.67581-.00938a14.98207,14.98207,0,0,1-5.00234-1.07177,5.02677,5.02677,0,0,1-2.89811-3.77561,3.33457,3.33457,0,0,1,.30442-2.23267,6.78315,6.78315,0,0,1,4.5656-3.61337,25.92626,25.92626,0,0,1,4.32218-.95579,5.48773,5.48773,0,0,0,1.22575-.1603,10.7287,10.7287,0,0,1,4.011-.56888c1.39156-.0021,2.61763-.67806,3.94351-.94754a5.66821,5.66821,0,0,1,1.01039-.308c2.05958.00841,3.881-1.01192,5.86528-1.31423a2.22558,2.22558,0,0,0,.5096-.14833c1.4176-.58619,2.84667-1.14585,4.25472-1.75323V68.38124c-.43689.12519-.87135.25831-1.29967.41311a13.808,13.808,0,0,1-4.50835.81442,5.37068,5.37068,0,0,0-.874.148,35.42058,35.42058,0,0,1-4.36253.77949,55.6076,55.6076,0,0,0-6.70105.69974c-.57722.10433-1.18257.043-1.77183.09381a4.104,4.104,0,0,0-1.38864.22678,6.92517,6.92517,0,0,1-2.77664.45905,19.07587,19.07587,0,0,0-2.64787.21448c-1.44979.27579-2.86932.70815-4.31716.99672a32.39009,32.39009,0,0,0-10.04156,3.85163,16.02752,16.02752,0,0,0-4.312,3.65236,16.54577,16.54577,0,0,0-2.736,4.74046,51.33943,51.33943,0,0,0-1.24921,5.4994,3.01359,3.01359,0,0,0-.02265.70815c-.00437.65106-.01245,1.30211-.00679,1.953a8.72765,8.72765,0,0,0,.54478,4.00481,1.57233,1.57233,0,0,1,.11161.69618,13.03915,13.03915,0,0,0,1.81793,5.87257,18.18779,18.18779,0,0,0,5.98385,6.66094,24.7763,24.7763,0,0,0,9.29806,3.78192,35.205,35.205,0,0,0,7.232.70685,70.14241,70.14241,0,0,0,8.13806-.55739c1.12773-.12261,2.18607-.52036,3.28469-.70411a28.15328,28.15328,0,0,0,5.92659-1.80984,33.95077,33.95077,0,0,0,6.67841-3.58458V93.46329C555.97843,93.50292,555.88283,93.54611,555.78562,93.58315Z"/><path class="cls-2" d="M566.39776,63.39216V112.813a8.00812,8.00812,0,0,0,1.36656.08039c4.79594.0131,9.59213.00485,14.38815.0021a8.79781,8.79781,0,0,0,1.06368-.04432c.85591-.10481,1.15814-.3916,1.24986-1.22057a12.90716,12.90716,0,0,0,.04788-1.41808q.00218-23.52471.00485-47.04926a24.98633,24.98633,0,0,0-.44684-4.40725c-.10368-.58134-.20567-1.16478-.26584-1.75161a22.79576,22.79576,0,0,0-4.26718-11.10961,20.51041,20.51041,0,0,0-7.45813-6.43416,22.47855,22.47855,0,0,0-8.01449-2.71145,3.13916,3.13916,0,0,1-.85364-.23,7.00812,7.00812,0,0,0-2.07673-.43188,5.37683,5.37683,0,0,1-1.38929-.251,7.58383,7.58383,0,0,0-2.62313-.36685q-6.217-.00534-12.43395-.00615a18.667,18.667,0,0,0-5.111.478,9.89946,9.89946,0,0,1-1.40838.15512q-3.95325.50855-7.905,1.02858a5.30668,5.30668,0,0,0-.52157.10854,19.34185,19.34185,0,0,1-2.76523.6284,26.141,26.141,0,0,0-6.31334,1.69193,47.10931,47.10931,0,0,0-5.43713,2.14547c-2.21834,1.08487-2.45612,1.23692-2.45863,3.72175q-.01067,10.564.00017,21.12787a10.98,10.98,0,0,0,.06648,1.4163.69023.69023,0,0,0,1.17229.49545c.75158-.57471,1.47405-1.18775,2.2025-1.79221a29.63048,29.63048,0,0,1,4.95527-3.41313,43.35215,43.35215,0,0,1,7.15169-3.09334,46.25332,46.25332,0,0,1,8.612-1.993,57.029,57.029,0,0,1,5.98918-.69311,1.86373,1.86373,0,0,0,.52351-.09219,14.63291,14.63291,0,0,1,4.57184-.48332c1.6578.01375,3.31575.00453,4.97371-.00129a8.97232,8.97232,0,0,1,3.32214.43867,4.95692,4.95692,0,0,0,1.3981.2085,14.5456,14.5456,0,0,1,3.39906.691c.04335-.00113.08556-.00647.12915-.00647A5.16157,5.16157,0,0,1,566.39776,63.39216Z"/><path class="cls-2" d="M464.03526,62.8566v49.92326a7.95629,7.95629,0,0,0,1.63839.11307q7.01388.02183,14.02793-.00016a8.6339,8.6339,0,0,0,1.41145-.10854.87271.87271,0,0,0,.77293-.84823c.04181-.64846.05807-1.29951.05823-1.94927q.00425-22.80629-.001-45.61273c-.00073-1.893-.04165-3.78581-.06478-5.67879a9.81154,9.81154,0,0,0-.52416-3.48753,19.86278,19.86278,0,0,1-.74964-2.545,19.9036,19.9036,0,0,0-4.412-8.20712,21.20539,21.20539,0,0,0-6.38984-5.01,23.05439,23.05439,0,0,0-8.02362-2.69252,3.14576,3.14576,0,0,1-.85454-.22483,6.747,6.747,0,0,0-2.2498-.45194,4.25131,4.25131,0,0,1-1.21314-.22888,7.27161,7.27161,0,0,0-2.61949-.38011q-6.3036-.00317-12.607-.00194a17.79954,17.79954,0,0,0-4.932.47069,4.81935,4.81935,0,0,1-1.23061.1451,65.76553,65.76553,0,0,0-7.55867.97115,45.62181,45.62181,0,0,0-7.421,1.63176A59.7374,59.7374,0,0,0,412.96,41.691c-2.23088,1.06271-2.24155,1.05738-2.243,3.44985q-.0063,10.56014-.00048,21.12026c0,.41409.00339.8285.02571,1.24177a.99426.99426,0,0,0,.41271.92506c.38845.21756.67346-.05289.94633-.27077.50863-.40567,1.025-.8052,1.50187-1.24662a29.07925,29.07925,0,0,1,5.86351-3.954,41.87156,41.87156,0,0,1,8.37276-3.36249,42.8407,42.8407,0,0,1,5.33223-1.28529c3.26262-.52731,6.58856-.60527,9.83087-1.31585a5.96061,5.96061,0,0,1,1.238-.07553c2.30836-.00987,4.61672-.01036,6.92509-.01375a5.80125,5.80125,0,0,1,2.09614.29988,3.25421,3.25421,0,0,0,1.03084.24587,16.62126,16.62126,0,0,1,3.15514.45,5.15167,5.15167,0,0,1,6.5875,4.95721Z"/><path class="cls-2" d="M451.92692,94.31152a38.63278,38.63278,0,0,1-8.38311,2.13059,63.16606,63.16606,0,0,1-12.0286.41651,23.26925,23.26925,0,0,1-3.66368-.61708,4.592,4.592,0,0,1-.99906-.35893,4.77957,4.77957,0,0,1-.13612-8.83116,19.79007,19.79007,0,0,1,6.271-1.8003,4.5658,4.5658,0,0,0,1.04856-.15011,10.26469,10.26469,0,0,1,4.17951-.58489,15.64956,15.64956,0,0,0,3.77731-.8974,6.11664,6.11664,0,0,1,1.17577-.37106,27.52941,27.52941,0,0,0,4.472-1.0116,32.744,32.744,0,0,0,5.52568-1.84235c.18424-.07166.36395-.1514.54624-.22645v-11.819a22.0696,22.0696,0,0,1-5.97447,1.35888c-2.63736.3015-5.22143,1.0365-7.90853.99008a6.01553,6.01553,0,0,0-1.22786.17663,22.81,22.81,0,0,1-4.052.45307,4.22916,4.22916,0,0,0-1.56309.24813,6.73705,6.73705,0,0,1-2.60452.43123,9.82864,9.82864,0,0,0-3.66854.517,6.387,6.387,0,0,1-1.04572.18116c-1.73228.38092-3.49287.67159-5.185,1.18661a35.62842,35.62842,0,0,0-5.2744,2.07026,18.92411,18.92411,0,0,0-6.65108,5.18755,17.5159,17.5159,0,0,0-3.15165,6.87073,19.05112,19.05112,0,0,0-.60585,3.48834,21.02635,21.02635,0,0,0,.5037,6.87235c.21966.79615.5079,1.57417.71009,2.3742a17.42126,17.42126,0,0,0,6.44622,9.49225,24.14445,24.14445,0,0,0,10.15057,4.39722,37.26049,37.26049,0,0,0,6.52273.69036,51.48213,51.48213,0,0,0,9.72177-.6648c.81183-.12212,1.58889-.506,2.4008-.59185a18.4369,18.4369,0,0,0,4.261-1.16931,36.46616,36.46616,0,0,0,8.19581-4.151V93.51311C453.12841,93.79456,452.53616,94.06452,451.92692,94.31152Z"/><path class="cls-2" d="M295.39292,37.90314a15.06393,15.06393,0,0,1-1.59488-.05985.9033.9033,0,0,1-.898-.92409c-.05492-.58748-.05257-1.1816-.0529-1.77264q-.005-9.40862-.00525-18.81724c-.00332-2.347-.21311-2.56183-2.51783-2.567q-7.28187-.017-14.56374-.00211a8.90767,8.90767,0,0,0-1.06433.03575,1.32443,1.32443,0,0,0-1.33574,1.38007c-.05645.58716-.04076,1.18208-.04109,1.77345q-.00388,9.31981-.00453,18.63964c-.00275,2.23444-.07731,2.30868-2.28167,2.31353-4.20328.00906-8.40689.00243-12.61018.00389-.53281.00016-1.06723-.01456-1.59794.0207-1.21541.08055-1.50365.38934-1.59892,1.65229-.01326.1768-.01423.35473-.01423.53217q-.00122,9.40861.00452,18.81724a7.54,7.54,0,0,0,.12989,1.40821,1.164,1.164,0,0,0,1.092,1.00367c.52877.05257,1.063.06373,1.59487.06438q6.394.00727,12.78778.00631a15.54268,15.54268,0,0,1,1.59342.07538.85764.85764,0,0,1,.81749.80083,17.0875,17.0875,0,0,1,.08234,1.7694q.00921,7.89972.006,15.79928a6.59985,6.59985,0,0,0,.169,2.29089,10.83373,10.83373,0,0,1,.44239,3.50064c.0537,1.82407-.10756,3.67354.642,5.42111a4.37827,4.37827,0,0,1,.11225.87637,4.76071,4.76071,0,0,0,.29568,1.19405,6.41345,6.41345,0,0,1,.4707,1.69808,6.02111,6.02111,0,0,0,.44708,1.52257,51.91474,51.91474,0,0,0,2.58367,5.2304,23.73046,23.73046,0,0,0,4.75275,5.70176,29.02476,29.02476,0,0,0,10.67433,5.799,56.59208,56.59208,0,0,0,5.82347,1.49427,74.768,74.768,0,0,0,9.36617.76153c2.6634.12212,5.32018-.12973,7.98-.2394,1.95583-.08055,3.88173-.437,5.8365-.47183a1.9159,1.9159,0,0,0,.6944-.13215,8.51286,8.51286,0,0,1,3.1316-.52553,6.38568,6.38568,0,0,0,1.23368-.13264c1.44016-.32787,2.87409-.68275,4.30915-1.03262,2.1906-.53427,2.45636-.86295,2.464-3.17535.01141-3.37285.00356-6.74586.00356-10.11871,0-3.49126.0068-6.98251-.00744-10.4736a7.472,7.472,0,0,0-.16442-1.75582,1.03151,1.03151,0,0,0-1.52637-.70394c-2.08708.816-4.124,1.74676-6.28455,2.39215a32.32719,32.32719,0,0,1-3.58151.9862c-1.51173.26851-3.03486.49383-4.52533.85292a9.85,9.85,0,0,1-2.26727.34226c-2.368.01262-4.73691-.00517-7.10382.05225a18.23256,18.23256,0,0,1-5.75708-.78094,13.31474,13.31474,0,0,1-7.49582-5.33A18.83622,18.83622,0,0,1,292.89822,74.906c-.1201-3.78353-.044-7.57338-.05015-11.36032a8.99745,8.99745,0,0,1,.04157-1.06335.98481.98481,0,0,1,1.009-1.02519c.58789-.05467,1.18241-.04723,1.7741-.04723q15.008-.00388,30.01581-.00259c.59193,0,1.18564.01683,1.77555-.02,1.20311-.07489,1.58646-.45113,1.677-1.60927.02758-.35327.02006-.70961.02006-1.06449q.00145-9.14246-.00146-18.28476c-.00259-2.37629-.14024-2.516-2.5078-2.51977q-7.90348-.01285-15.8072-.00307Q303.11875,37.9054,295.39292,37.90314Z"/><path class="cls-2" d="M956.59125,81.07213c.74681-.50823,1.09813-.47507,1.64388.24554.74891.98862,1.44574,2.01656,2.17508,3.02023q2.86737,3.94633,5.743,7.88637c1.32127,1.817,2.634,3.64007,3.95576,5.45686q3.131,4.30325,6.26712,8.60278c1.24957,1.72265,2.51322,3.43658,3.709,5.19611a3.0932,3.0932,0,0,0,2.84283,1.43248c5.62351-.03737,11.24746-.01424,16.87125-.01957a7.49942,7.49942,0,0,0,1.23619-.09091c.67163-.11371.90148-.59864.53738-1.15976-.61139-.94188-1.22568-1.88522-1.89659-2.78488-2.47318-3.31656-4.98-6.60805-7.45461-9.92364-1.62715-2.17993-3.14571-4.4451-4.84775-6.56389-2.33533-2.907-4.406-6.0052-6.6778-8.95685-2.01758-2.62151-3.94133-5.31517-5.8993-7.98229-.90961-1.239-1.81408-2.48209-2.69725-3.73987-.42278-.6022-.37571-.81782.25375-1.32572.92033-.74228,1.83637-1.49394,2.79839-2.17993A59.55531,59.55531,0,0,0,982.304,62.1009a67.65611,67.65611,0,0,0,5.06672-5.44748,54.3237,54.3237,0,0,0,5.4197-7.88056,39.2801,39.2801,0,0,0,3.33884-8.18383,5.444,5.444,0,0,0,.2087-1.21735c.05609-1.03763-.24388-1.353-1.32689-1.44234-.35319-.02911-.70981-.02232-1.06485-.02232q-12.60913-.00146-25.21825.00291a10.95454,10.95454,0,0,0-1.59168.09058,1.47617,1.47617,0,0,0-1.232,1.13615,3.13907,3.13907,0,0,0-.12932.87443,17.54775,17.54775,0,0,1-.6297,3.82964,80.244,80.244,0,0,1-2.75289,8.04683,4.0431,4.0431,0,0,1-.31914.63293c-1.30825,2.38018-2.59984,4.76085-4.126,7.02392a59.69049,59.69049,0,0,1-5.46559,6.73179V83.8727Q954.53607,82.472,956.59125,81.07213Z"/><path class="cls-2" d="M923.82323,2.82918c-.05492.64669-.03648,1.30049-.03656,1.95106q-.00217,26.1822-.00113,52.36409,0,26.35958.00226,52.71915c.00017.65008.01133,1.30194.06034,1.94991a.992.992,0,0,0,.88551.96469,8.93738,8.93738,0,0,0,1.4108.114q7.10378.01188,14.20739,0a8.70821,8.70821,0,0,0,1.41064-.115.99676.99676,0,0,0,.8974-.9545c.04659-.58877.05734-1.18143.05775-1.77247q.00363-4.4908.00161-8.98192h-.56047V6.35376h.55886q-.00049-1.05543-.00033-2.11054a15.21653,15.21653,0,0,0-.06567-1.59358A1.1614,1.1614,0,0,0,941.64376,1.559a12.2657,12.2657,0,0,0-1.94014-.14234q-6.57084-.01723-13.14185-.00437a12.99608,12.99608,0,0,0-1.41865.04448C924.25543,1.55523,923.90087,1.91318,923.82323,2.82918Z"/><path class="cls-2" d="M859.88659,82.5913c.84726-.63682,1.77871-1.16267,2.68039-1.72541a.63572.63572,0,0,1,.81564.10061,7.71948,7.71948,0,0,1,.82906.91972c.70677.94722,1.38864,1.913,2.08449,2.86867,1.915,2.62993,3.84007,5.25257,5.74672,7.88864q4.78074,6.60918,9.54417,13.231,1.76294,2.44278,3.53816,4.8765c.31348.43042.64976.84434.96032,1.27687a2.00073,2.00073,0,0,0,1.509.82008,8.719,8.719,0,0,0,.88624.04481q8.52594.00363,17.0518-.0047a5.55353,5.55353,0,0,0,1.225-.15172.65152.65152,0,0,0,.47919-.95094,4.54351,4.54351,0,0,0-.45081-.76023c-.38974-.52068-.81684-1.0137-1.20432-1.53616q-4.6473-6.2644-9.286-12.53512c-2.25483-3.03851-4.52582-6.06538-6.779-9.105-1.3025-1.75727-2.57444-3.53686-3.87743-5.29365q-3.59211-4.8431-7.20257-9.67276a9.09839,9.09839,0,0,1-.69262-1.02761c-.42185-.76735-.36742-1.19583.351-1.673.98847-.65655,1.87082-1.44283,2.81691-2.14516a71.502,71.502,0,0,0,11.75564-11.01983,56.3071,56.3071,0,0,0,3.42833-4.52274,33.31131,33.31131,0,0,0,2.48532-4.08925c.86537-1.73916,1.48262-3.60076,2.32615-5.352.60124-1.24807.58975-2.64254,1.14213-3.89579a.856.856,0,0,0-.7726-1.15588,12.98473,12.98473,0,0,0-1.76917-.09155q-12.52213-.008-25.0442-.00259c-.47345.00016-.94981-.012-1.41978.03316-.9342.08961-1.26522.40017-1.43708,1.27946-.41756,2.13545-.83974,4.26394-1.41177,6.37157A43.21052,43.21052,0,0,1,865.1872,56.907a45.35477,45.35477,0,0,1-5.9033,7.96272c-.13781.14235-.27109.28906-.40761.43269V83.32387C859.21524,83.08319,859.55355,82.84153,859.88659,82.5913Z"/><path class="cls-2" d="M829.58949,3.07893c-.02644.53152-.01132,1.065-.01132,1.59762q-.00072,26.27466,0,52.54914.0005,26.71842.00291,53.43684c.00057,2.09258.12374,2.2236,2.1987,2.23007,4.73642.0144,9.473.006,14.20941.00065a7.73258,7.73258,0,0,0,1.23821-.07829,1.24862,1.24862,0,0,0,1.22948-1.27476,15.70314,15.70314,0,0,0,.04545-1.59569q.00425-8.43276.00243-16.86538c.00016-.53265.01876-1.0653.01059-1.59762a2.1673,2.1673,0,0,1,.03818-.402V74.09367a2.59371,2.59371,0,0,1-.04117-.682c-.01536-.53216-.00792-1.06514-.008-1.59762q-.00038-16.333-.00025-32.6658,0-17.22051-.00323-34.441a14.85926,14.85926,0,0,0-.08525-1.94669,1.396,1.396,0,0,0-1.284-1.27266,10.54965,10.54965,0,0,0-1.41614-.07408q-6.83847-.00777-13.67669-.00308c-.2368,0-.474-.0042-.71033.007C829.92319,1.48454,829.65662,1.73234,829.58949,3.07893Z"/><path class="cls-2" d="M670.23057,2.84682a18.10369,18.10369,0,0,0-.06777,2.12558q-.0046,26.08661-.00235,52.17339,0,26.17566.00122,52.351c0,.65057-.01715,1.30389.03542,1.95073.07174.88042.43625,1.24274,1.332,1.383a6.91845,6.91845,0,0,0,1.06165.06292q7.27958.00582,14.559-.00064a7.37732,7.37732,0,0,0,1.23708-.08234,1.277,1.277,0,0,0,1.23158-1.28447c.06162-.64555.04933-1.29935.04933-1.94959q.00291-52.17372.00162-104.34711c0-.41409.001-.82817-.00623-1.24226a5.62887,5.62887,0,0,0-.03971-.708,1.92865,1.92865,0,0,0-1.84413-1.82537,10.71729,10.71729,0,0,0-1.24113-.04141q-6.74674-.00388-13.49366.00064a10.34342,10.34342,0,0,0-1.41719.059A1.46613,1.46613,0,0,0,670.23057,2.84682Z"/><path class="cls-2" d="M617.93635,3.96452c-.00873.53233-.00242,1.06481-.00242,1.59714V98.73074c0,3.845-.00623,7.69017.00258,11.53517.0055,2.39781.221,2.62006,2.65354,2.62734,4.67544.01391,9.351.00615,14.02664.00129a9.93363,9.93363,0,0,0,1.41582-.07456,1.07316,1.07316,0,0,0,1.03391-1.03894,21.22881,21.22881,0,0,0,.0732-2.12542q.00521-26.17614.00283-52.35212,0-25.91-.00025-51.81964c0-.59169.0085-1.18354-.00833-1.77458a5.81877,5.81877,0,0,0-.102-1.05592,1.36325,1.36325,0,0,0-1.19446-1.14973,9.89849,9.89849,0,0,0-1.41411-.0888c-4.6164-.006-9.2328-.01375-13.84912.001C618.32666,1.42308,617.97275,1.78491,617.93635,3.96452Z"/><path class="cls-2" d="M359.242,39.09007c-.04949.58813-.03979,1.18209-.03987,1.77329q-.00279,17.3064-.00137,34.61248,0,17.04022.00008,34.08015c0,.53248-.01027,1.06529.006,1.59746.04392,1.437.24894,1.65035,1.63,1.734.11816.00728.23672.0076.35512.0076q7.36983.001,14.73972-.0034a7.36638,7.36638,0,0,0,1.23368-.10643,1.02287,1.02287,0,0,0,.89829-.96081,15.36228,15.36228,0,0,0,.06794-1.5939q.00751-6.56745.00323-13.1349-.00036-28.31127-.00372-56.62254c-.00064-2.359-.196-2.5573-2.50448-2.56312q-7.01473-.01722-14.02947-.00145a10.26417,10.26417,0,0,0-1.24064.04933C359.59984,38.051,359.30464,38.34181,359.242,39.09007Z"/><path class="cls-2" d="M119.8732,39.22012c-.06179.70508-.04982,1.4176-.04982,2.12672q-.00339,28.29768-.00178,56.595c0,4.19875-.00857,8.39767.00437,12.59642.00679,2.15292.19248,2.34719,2.31338,2.354,4.7335.0152,9.46685.00566,14.20019.00291a8.5578,8.5578,0,0,0,1.06287-.04577c.94011-.11889,1.24436-.42379,1.31036-1.35338.04189-.58878.02717-1.18209.02717-1.77329q.00194-17.12055.00113-34.24093.00024-10.29009,0-20.58c-.00032-4.96757.00938-9.93529-.00728-14.90269-.00614-1.83572-.232-2.03807-2.03483-2.09-.11825-.00339-.23665-.00242-.35489-.00242q-7.01145-.00024-14.02275.00178a10.21789,10.21789,0,0,0-1.23983.05062C120.26626,38.05939,119.94745,38.37173,119.8732,39.22012Z"/><path class="cls-2" d="M359.109,3.29762a14.653,14.653,0,0,0-4.605,6.19445,10.33007,10.33007,0,0,0-.80067,5.04229A14.07,14.07,0,0,0,358.09862,23.4a18.57238,18.57238,0,0,0,2.5505,1.8946,11.22355,11.22355,0,0,0,6.2835,2.10019c.53248.00954,1.0653.00145,1.598.00145a14.502,14.502,0,0,0,4.39626-.39354,15.22578,15.22578,0,0,0,8.77617-6.76851,12.61332,12.61332,0,0,0,1.56188-8.864,13.50717,13.50717,0,0,0-2.9265-5.99113A13.50225,13.50225,0,0,0,374.202,1.01756a15.81224,15.81224,0,0,0-7.67958-.84337A15.54453,15.54453,0,0,0,359.109,3.29762Z"/><path class="cls-2" d="M114.46648,14.25728c.02119.413.00793.82817.04125,1.23966a4.02927,4.02927,0,0,0,.16272,1.04541,17.32223,17.32223,0,0,0,3.04336,5.747,16.877,16.877,0,0,0,5.33361,4.00595,11.401,11.401,0,0,0,6.17682,1.08163,12.13044,12.13044,0,0,0,6.2509-1.053,15.00414,15.00414,0,0,0,6.45293-5.3569,8.41764,8.41764,0,0,0,1.81146-4.36,1.66573,1.66573,0,0,1,.20219-.67418,4.71065,4.71065,0,0,0,.34275-2.94987,18.60483,18.60483,0,0,0-.95692-3.75621,14.71674,14.71674,0,0,0-7.55543-7.861A14.03088,14.03088,0,0,0,129.04906.01211a14.74594,14.74594,0,0,0-11.5604,5.60681A12.51858,12.51858,0,0,0,114.46648,14.25728Z"/><path class="cls-2" d="M531.19346,168.36169c-.35342.94237-.71777,1.88053-1.08179,2.81885-.53653,1.383-1.09442,2.75787-1.61129,4.14813-.61992,1.66717-1.17173,3.36023-1.81478,5.01819-1.15822,2.98626-2.37225,5.95085-3.54115,8.93307-.34575.882-.5832,1.80644-.93032,2.688-1.19559,3.03576-2.54031,6.019-3.60156,9.10016-1.64357,4.77152-3.60351,9.42-5.316,14.16413-1.6117,4.46484-3.40116,8.86578-5.119,13.29244a7.70267,7.70267,0,0,1-.46827.95369.39089.39089,0,0,1-.61086.05532,5.23633,5.23633,0,0,1-.54607-.91567q-1.01455-2.566-1.98454-5.14938c-.41966-1.11026-.79145-2.239-1.22761-3.34244-1.06829-2.703-2.17338-5.39167-3.24143-8.09487-1.06789-2.7032-2.10067-5.42-3.16492-8.12463-.52141-1.32508-1.19138-2.60227-1.59754-3.95985-.85373-2.85379-2.18883-5.51348-3.1967-8.30337-.6847-1.89493-1.56479-3.71577-2.17516-5.64288a23.14173,23.14173,0,0,0-1.1169-2.99095c-1.25479-2.62928-2.15429-5.39491-3.213-8.09908-.8864-2.26453-1.7639-4.53261-2.651-6.79682a1.69165,1.69165,0,0,0-1.63911-1.15264c-.17825-.00566-.35634-.01812-.53459-.01828q-7.49114-.00217-14.98211.00146a5.87357,5.87357,0,0,0-1.06271.09187.67021.67021,0,0,0-.55537.93121c.42548,1.17076.89254,2.32631,1.3465,3.48656q2.074,5.30094,4.15282,10.59992c.25993.66092.57519,1.30081.82008,1.96691.47037,1.27946.86634,2.5877,1.36785,3.85454,2.03023,5.12948,4.094,10.24553,6.13323,15.37145.52561,1.321.98879,2.66664,1.512,3.98864,1.04726,2.64658,2.13245,5.27845,3.172,7.9281,1.08333,2.76143,2.12267,5.54,3.19719,8.305q1.999,5.14371,4.02673,10.27642c1.35572,3.42008,2.74331,6.82755,4.10284,10.24634q1.74255,4.38161,3.45041,8.777c.83585,2.15453,1.62245,4.32815,2.46493,6.4801.75708,1.93358,1.5842,3.84015,2.33328,5.77681a1.98541,1.98541,0,0,0,2.01518,1.43377c.2973-.00016.59444.01229.89158.01245q5.17245.00145,10.34484-.00081c.41586-.00032.83237-.011,1.24743-.03494a1.68438,1.68438,0,0,0,1.59261-1.21022c.26551-.724.5675-1.43442.83868-2.15632,1.45933-3.88512,3.07361-7.70942,4.44187-11.63222,1.03384-2.96443,2.30529-5.84539,3.44693-8.77294q1.94006-4.9746,3.83546-9.96666c.9097-2.38568,1.78558-4.7843,2.69794-7.169.59315-1.55055,1.23344-3.08315,1.83645-4.63015.7748-1.98809,1.52662-3.98508,2.30084-5.97333.83941-2.15567,1.71077-4.299,2.53684-6.45972,1.37594-3.59882,2.71355-7.21236,4.0945-10.80907.614-1.59941,1.29459-3.17309,2.04706-5.00752a7.80779,7.80779,0,0,1,.43519.74147c1.9927,5.07966,3.95605,10.171,5.97875,15.23865q1.84591,4.62425,3.64225,9.26676c1.67421,4.31263,3.4792,8.57415,5.0896,12.91411.98968,2.66729,2.11806,5.28282,3.16,7.93134.62986,1.601,1.12191,3.26221,1.83831,4.82182,1.16655,2.53951,2.02635,5.19548,3.10782,7.76668,1.19575,2.84279,2.26089,5.74058,3.38789,8.61232.54163,1.38007,1.14715,2.73733,1.63087,4.137.77188,2.23363.91616,2.38616,3.28388,2.391q6.5102.01311,13.02022.0013c.41594-.00017.83205-.01311,1.24775-.028a1.664,1.664,0,0,0,1.43741-.9092,6.11555,6.11555,0,0,0,.38271-.80294c1.20828-3.0301,2.42-6.0589,3.61264-9.09515.67241-1.71214,1.28092-3.44968,1.97216-5.1539.98111-2.41883,2.05255-4.80144,3.01288-7.2282,1.85505-4.68806,3.64637-9.40151,5.48994-14.09409,1.01927-2.5945,2.09638-5.16619,3.13725-7.75245.68664-1.70583,1.3529-3.41781,1.97936-5.149,1.008-2.786,2.22183-5.497,3.32-8.25113.90088-2.25951,1.71255-4.55542,2.65152-6.79843.84725-2.024,1.66831-4.05835,2.5116-6.082.48089-1.15378.78288-2.35851,1.27857-3.50581,1.24686-2.88566,2.44188-5.7967,3.55118-8.73768,1.27768-3.38724,2.69139-6.71674,4.05706-10.06711.62727-1.53875,1.18645-3.1058,1.74983-4.66978a.79635.79635,0,0,0-.74616-1.13485,12.87776,12.87776,0,0,0-1.60062-.07068q-10.25563-.00632-20.51135-.00194c-.416,0-.83205.01083-1.24808.02a1.68848,1.68848,0,0,0-1.65876,1.12321c-.37607.93606-.77633,1.86467-1.10008,2.819-.87669,2.58366-2.008,5.06736-2.87966,7.6583-1.07622,3.19929-2.44165,6.30089-3.66191,9.45246-.53556,1.383-1.00447,2.79184-1.53276,4.17789q-1.96443,5.15463-3.95629,10.29874c-.682,1.771-1.37828,3.53687-2.05279,5.3108-.63245,1.66313-1.31876,3.3109-1.9208,4.97775-.987,2.73264-2.05684,5.43293-3.05954,8.15877-.65542,1.78218-1.46822,3.51-2.05748,5.31209-.72036,2.20339-1.65133,4.32234-2.42919,6.50065a1.46981,1.46981,0,0,1-.24126.473.86742.86742,0,0,1-.41731.25347c-.06608.017-.21133-.11372-.25743-.20818-.12989-.26608-.23212-.54607-.33612-.824-.457-1.22155-.8919-2.45151-1.36907-3.665-1.82335-4.63645-3.67565-9.26159-5.4863-13.90289-1.33672-3.42656-2.62443-6.87187-3.93567-10.30829-1.67017-4.37684-3.56477-8.66473-5.09914-13.09737-.73565-2.1251-1.706-4.16786-2.48532-6.285-1.04411-2.83665-2.22587-5.6225-3.31956-8.44135-.98692-2.54387-1.93293-5.1036-2.90045-7.65507-.74907-1.97515-.98078-2.14354-3.143-2.14709q-7.49113-.01214-14.98219-.00275c-1.54578.00016-3.09213.0317-4.637-.00421A2.057,2.057,0,0,0,531.19346,168.36169Z"/><path class="cls-2" d="M64.78047,268.26434c2.33828-.42767,4.73318-.34566,7.071-.85518a25.13619,25.13619,0,0,0,4.1863-.77495,2.87621,2.87621,0,0,1,.88155-.11113,10.09253,10.09253,0,0,0,2.43792-.50515c2.31855-.73273,4.64309-1.44768,6.95744-2.19384,2.10164-.67758,2.23088-.856,2.2346-3.00891q.01212-6.95176.00275-13.90354c.00016-4.21865.00533-8.43714-.00647-12.65579a12.267,12.267,0,0,0-.14412-1.7665.58091.58091,0,0,0-.86149-.3345,8.84518,8.84518,0,0,0-.96033.78692,33.54515,33.54515,0,0,1-10.32316,6.84777,31.01573,31.01573,0,0,1-6.52135,2.30739,2.23561,2.23561,0,0,0-.51518.14186,25.26887,25.26887,0,0,1-5.907,1.2319,33.60576,33.60576,0,0,1-7.44738.572,23.37428,23.37428,0,0,0-2.85233-.001c-3.54415.21643-6.94967-.67466-10.39482-1.252-1.96658-.82153-4.06984-1.21022-6.02575-2.12881a38.443,38.443,0,0,1-8.53856-5.40753,28.78119,28.78119,0,0,1-5.37938-6.13137,27.94349,27.94349,0,0,1-3.95693-9.65335,34.5784,34.5784,0,0,1-.51033-5.48953A26.93517,26.93517,0,0,1,19.931,202.98921a23.03553,23.03553,0,0,1,8.01221-9.12944,62.45094,62.45094,0,0,1,6.4146-3.071,2.37113,2.37113,0,0,1,.86489-.18666,8.3512,8.3512,0,0,0,2.58609-.64377,7.66942,7.66942,0,0,1,2.78682-.504,17.38361,17.38361,0,0,0,2.83971-.193,26.69718,26.69718,0,0,1,9.39827-.05419,12.00291,12.00291,0,0,0,1.94572.21254,22.0384,22.0384,0,0,1,5.46074.66545c2.23768.55125,4.492.95919,6.69265,1.72961a51.21923,51.21923,0,0,1,6.75023,2.71679,36.82154,36.82154,0,0,1,11.49247,8.86578,7.2919,7.2919,0,0,0,1.03521.96889.51232.51232,0,0,0,.8293-.31088,15.45264,15.45264,0,0,0,.10983-1.772q.01261-6.95177.00485-13.90354.00024-6.417-.00032-12.834c-.00032-.77237-.021-1.54489-.00825-2.3171a1.87157,1.87157,0,0,0-1.12207-1.86306c-.9097-.43608-1.81421-.88947-2.75076-1.261-1.81873-.72174-3.67985-1.3186-5.5455-1.91644-2.609-.83593-5.27295-1.42989-7.92422-2.0549-1.88926-.4453-3.86167-.54009-5.78942-.88818-1.50284-.27141-3.07555-.20073-4.61187-.38448-1.29628-.155-2.60065-.25913-3.90437-.335a82.2103,82.2103,0,0,0-12.26726.62226,22.49864,22.49864,0,0,0-2.59467.60172c-.40486.08476-.82768.07958-1.24047.13086a8.10183,8.10183,0,0,0-1.40692.21205c-2.8897.89934-5.82,1.69824-8.64095,2.78052a40.54212,40.54212,0,0,0-9.13542,5.14241,43.23456,43.23456,0,0,0-7.41956,6.63183,60.94372,60.94372,0,0,0-5.81805,8.08387,24.31046,24.31046,0,0,0-1.9221,3.81314c-1.02227,2.59078-1.99019,5.1945-2.79782,7.87036-.86181,2.85622-1.12159,5.8132-1.83119,8.68592.00808,2.31887-.45954,4.60556-.42121,6.93171.04206,2.55358.09851,5.09907.3075,7.64941.17064,2.08062.68615,4.092.94705,6.15143a38.01933,38.01933,0,0,0,1.0818,4.12014A41.17911,41.17911,0,0,0,6.42686,244.1625a45.50959,45.50959,0,0,0,23.74776,20.58131,58.2897,58.2897,0,0,0,9.20951,2.69366,64.32932,64.32932,0,0,0,10.432,1.16655c4.93117.25686,9.85862-.15609,14.78655-.32722A1.25,1.25,0,0,0,64.78047,268.26434Z"/><path class="cls-2" d="M858.36794,268.64511c2.19748-.03753,4.39035-.09123,6.58807-.22225a99.36013,99.36013,0,0,0,9.91475-1.04654c1.23837-.19927,2.41471-.60107,3.64184-.7963a43.54967,43.54967,0,0,0,8.83036-2.721,2.03733,2.03733,0,0,0,1.36915-1.9132c.02458-.47442.03113-.95013.03121-1.4252q.00279-10.60671,0-21.21327c-.00008-.47507-.00008-.95159-.0334-1.425-.034-.48056-.11047-.96937-.64134-1.17383a1.237,1.237,0,0,0-1.28658.40826c-.31655.26786-.58716.5891-.89222.87152a11.32147,11.32147,0,0,1-1.33348,1.17756,33.39508,33.39508,0,0,1-9.39569,4.60556c-2.37937.66755-4.69565,1.72185-7.25,1.69807a3.343,3.343,0,0,0-1.04508.20785,10.49622,10.49622,0,0,1-2.63267.41505c-.94714.06163-1.89072.18311-2.83454.29083a19.14644,19.14644,0,0,1-5.33215-.00452c-1.5715-.2635-3.21336-.18909-4.71183-.871a1.8036,1.8036,0,0,0-.70411-.08929,5.0025,5.0025,0,0,1-2.20921-.61255c-.58174-.29212-1.21063-.49076-1.8189-.73031a16.09856,16.09856,0,0,1-9.10808-8.54276c-.44506-.97618-.58393-1.476-.21149-1.712l-.4149-1.11155a15.32419,15.32419,0,0,1,.55481-11.96447l1.24929-2.58673a3.89988,3.89988,0,0,1,4.39448-2.10148c.01828-.01019.0351-.02168.05338-.03171a19.61077,19.61077,0,0,1,8.34364-2.28313,30.78669,30.78669,0,0,1,9.736.76994c3.2923.85486,6.20642,2.38229,8.09228,5.3899a8.62872,8.62872,0,0,1,.64912,1.26555.69207.69207,0,0,1-.64006,1.00642c-.53062.05176-1.06756.05321-1.60175.0537q-6.95262.00534-13.90524.00194-4.21275.00024-8.42557-.00032l-.9211,1.90754a7.48918,7.48918,0,0,0-.27158,5.84571l1.36527,3.658h17.8532q12.039,0,24.0779-.00194a19.24668,19.24668,0,0,0,1.95946-.05435c1.01977-.10514,1.34489-.45323,1.46377-1.45674a7.68571,7.68571,0,0,0,.04109-.89c.00873-4.68433.16919-9.3609-.9697-13.98846a44.49968,44.49968,0,0,0-2.56919-7.56676,28.04323,28.04323,0,0,0-10.058-11.974,32.4323,32.4323,0,0,0-7.26638-3.72466c-.95385-.34243-1.96634-.4927-2.88857-.849a16.09352,16.09352,0,0,0-5.76848-.926,13.52753,13.52753,0,0,1-3.53435-.38982,4.874,4.874,0,0,0-2.64125.02815,11.14535,11.14535,0,0,1-2.82387.34194c-2.31806.03041-4.64672.00857-6.822,1.013a.83086.83086,0,0,1-.34817.06858,8.22118,8.22118,0,0,0-2.8838.845,50.19652,50.19652,0,0,0-6.99835,3.49287,6.31749,6.31749,0,0,0-1.16543.81765,42.52516,42.52516,0,0,0-7.32428,7.73417,36.88174,36.88174,0,0,0-4.35145,8.93194,26.04746,26.04746,0,0,0-1.6988,7.61689c-.79841,2.97316-.509,6.01766-.63383,9.03886a39.56526,39.56526,0,0,0,.90768,8.12253,31.55213,31.55213,0,0,0,2.61722,8.103,38.15489,38.15489,0,0,0,2.70013,5.21084,38.62871,38.62871,0,0,0,8.37163,8.68947,8.20038,8.20038,0,0,0,1.183.794,57.20008,57.20008,0,0,0,6.16218,3.18231,34.03108,34.03108,0,0,0,6.63919,1.97693A51.24715,51.24715,0,0,0,858.36794,268.64511Z"/><path class="cls-2" d="M935.12535,192.21378a28.15944,28.15944,0,0,0-4.79254.38449,20.33457,20.33457,0,0,1-2.21471.63876,19.28472,19.28472,0,0,0-5.45605,1.559,19.87931,19.87931,0,0,0-3.4158,1.50413,25.76724,25.76724,0,0,0-6.26562,4.64875,18.66564,18.66564,0,0,0-4.37037,7.246c-.29439.96663-.46957,1.95655-.72223,2.92269a15.82149,15.82149,0,0,0,.02233,8.44038,6.93,6.93,0,0,1,.10028,1.06271,7.09914,7.09914,0,0,0,.17825,1.23125,16.69543,16.69543,0,0,0,6.461,9.33422,23.47181,23.47181,0,0,0,5.15576,2.79362,44.29736,44.29736,0,0,0,6.16574,1.73058,30.6845,30.6845,0,0,0,3.10078.76638c1.58946.16531,3.15659.335,4.73723.64976a63.25326,63.25326,0,0,0,7.257.79258c1.894.153,3.76186.56856,5.67239.54333a1.35944,1.35944,0,0,1,.5227.10077,10.12314,10.12314,0,0,0,3.688.50111,5.91144,5.91144,0,0,1,2.11668.22629,14.79151,14.79151,0,0,0,3.28615.79387,5.76684,5.76684,0,0,1,2.27068.97359,2.05772,2.05772,0,0,1,.29859,3.45858,2.856,2.856,0,0,1-1.5106.88591c-.52036.09285-1.01645.314-1.53009.45372a13.27539,13.27539,0,0,1-3.135.63924c-1.72379.04173-3.44175.17857-5.16182.25136-4.63549.19572-9.26919-.01714-13.90007-.25087-.11864-.006-.23713-.01877-.35513-.03284-2.41309-.2863-4.74563-1.068-7.19165-1.16413a2.55881,2.55881,0,0,1-.83722-.28387,16.18,16.18,0,0,0-3.40294-1.0378,10.64348,10.64348,0,0,1-1.88109-.54592,36.10957,36.10957,0,0,1-9.67479-5.5903c-.27781-.22338-.53491-.47474-.82574-.679a.80905.80905,0,0,0-1.35855.49868,11.71711,11.71711,0,0,0-.09576,1.77475q-.00873,10.6972-.00275,21.39443c.00016.47523.011.95046.02523,1.42568a2.03458,2.03458,0,0,0,1.04055,1.75954,5.49719,5.49719,0,0,0,1.09167.59735c2.13738.70265,4.15556,1.79561,6.45026,1.99068a1.80647,1.80647,0,0,1,.5176.12843,20.34676,20.34676,0,0,0,5.21715,1.09215c3.00292.37235,6.02792.646,9.05123.75765a98.45873,98.45873,0,0,0,15.30375-.55562,41.04806,41.04806,0,0,0,4.55978-.75927c1.72832-.40648,3.47646-.77285,5.15415-1.33963a42.13526,42.13526,0,0,0,6.66433-2.96054,22.49212,22.49212,0,0,0,7.03055-6.20707,22.77659,22.77659,0,0,0,3.91763-9.0877,29.58915,29.58915,0,0,0,.37785-5.85623,15.78273,15.78273,0,0,0-1.08632-6.27484,13.07341,13.07341,0,0,0-3.50783-5.29592,22.33,22.33,0,0,0-8.46343-4.42488c-4.05868-1.16866-8.282-1.5347-12.3986-2.43049a8.46686,8.46686,0,0,0-.888-.06955c-2.36271-.25476-4.726-.506-7.08716-.77511-.76606-.08735-1.52289-.28081-2.29008-.32771-2.43356-.14882-4.80719-.82559-7.25846-.80472a1.0211,1.0211,0,0,1-.34946-.06454,29.4717,29.4717,0,0,0-4.70933-.95045,7.48647,7.48647,0,0,1-3.35328-1.57336,1.77185,1.77185,0,0,1,.03066-2.90571,5.77974,5.77974,0,0,1,2.8685-1.35969,43.36681,43.36681,0,0,1,6.897-.82477q4.54806-.00049,9.09612.023a16.78244,16.78244,0,0,1,1.7762.138c1.82973.20688,3.6433.555,5.49164.60026a3.14865,3.14865,0,0,1,1.05268.15771,43.767,43.767,0,0,0,4.82158,1.24533,33.57355,33.57355,0,0,1,11.31721,5.46834c.66884.49027,1.25762,1.08843,1.90253,1.61348a4.46039,4.46039,0,0,0,.89513.56031.67807.67807,0,0,0,.85923-.42315,5.447,5.447,0,0,0,.137-1.76811q.009-5.52681.00324-11.0538.00024-5.34848-.00033-10.69713c-.00016-.53475-.02394-1.07015-.00744-1.60426a1.769,1.769,0,0,0-1.33122-1.89023c-1.15547-.32674-2.15631-1.03262-3.29933-1.30906-2.12679-.51453-4.13389-1.53664-6.38782-1.52952a2.19153,2.19153,0,0,1-.85648-.21627,8.53487,8.53487,0,0,0-1.89848-.45,32.01966,32.01966,0,0,0-6.04208-.38723,40.1988,40.1988,0,0,1-6.21435-.48364,11.03151,11.03151,0,0,0-3.55239.02038A32.11922,32.11922,0,0,1,935.12535,192.21378Z"/><path class="cls-2" d="M308.61051,268.35039c1.948-.20364,3.90226-.34712,5.85291-.526a3.27756,3.27756,0,0,0,.69674-.14785c1.46887-.47183,3.00657-.62468,4.49387-1.06206,4.36326-1.28334,8.52724-2.89115,12.10115-5.82242a23.662,23.662,0,0,0,5.69835-6.754c2.1069-3.72757,2.35584-7.78156,2.558-11.87889a3.78743,3.78743,0,0,0-.0588-.53087q-.12617-1.32936-.2491-2.6592a13.16,13.16,0,0,0-3.90372-8.36872,19.64593,19.64593,0,0,0-6.49288-3.97409,12.79233,12.79233,0,0,0-2.52753-.8403c-2.04163-.38885-4.0252-1.02744-6.09959-1.29223-1.29134-.16483-2.55907-.5134-3.87468-.56338a7.03351,7.03351,0,0,1-1.21427-.26528c-.4635-.10319-.92328-.23971-1.39252-.297-1.946-.23746-3.89515-.44854-5.84264-.67289-1.41509-.163-2.82929-.33321-4.24421-.49739-1.00246-.1163-2.01236-.187-3.00648-.3531a21.15282,21.15282,0,0,0-3.00721-.35214,3.41387,3.41387,0,0,1-1.06069-.10449,34.83226,34.83226,0,0,0-5.05636-1.00432,8.64064,8.64064,0,0,1-3.27354-1.34221,1.79287,1.79287,0,0,1-.11873-3.11534,6.2533,6.2533,0,0,1,2.86835-1.37069,60.90558,60.90558,0,0,1,6.54214-.81749q4.90023-.18682,9.79771.02183c.47458.02055.94932.059,1.4214.11307,1.88853.21545,3.76032.574,5.66819.62954a3.44694,3.44694,0,0,1,1.21572.22871,11.82573,11.82573,0,0,0,2.06614.51761,39.71367,39.71367,0,0,1,6.47032,1.9572,34.21941,34.21941,0,0,1,8.67961,5.19967c.45856.3764.94171.72611,1.43554,1.05527a.64211.64211,0,0,0,.87322-.36572,5.44083,5.44083,0,0,0,.13919-1.76827q.008-5.52706.00291-11.05412.00024-4.814-.00057-9.6278c-.00048-.83189-.0207-1.66394-.01326-2.49583a2.18411,2.18411,0,0,0-1.39875-2.08854,14.565,14.565,0,0,0-1.49354-.5671c-2.57039-.905-5.08992-1.987-7.853-2.21908a3.86275,3.86275,0,0,1-1.0306-.2622,9.63923,9.63923,0,0,0-1.73228-.39225,36.96865,36.96865,0,0,0-6.75444-.41359,35.59769,35.59769,0,0,1-5.327-.42347,13.45051,13.45051,0,0,0-4.78681.07133,17.3774,17.3774,0,0,1-3.544.34421c-1.07007.00065-2.1407.02717-3.20988.07036a14.202,14.202,0,0,0-3.85245.65493,7.64858,7.64858,0,0,1-1.90155.413,4.08312,4.08312,0,0,0-1.049.182,43.19659,43.19659,0,0,0-8.94261,3.91876,20.421,20.421,0,0,0-8.34462,9.681,13.13166,13.13166,0,0,0-1.27816,5.331c.03364,1.84138.001,3.68406-.00259,5.52625a15.56619,15.56619,0,0,0,.90355,5.05443,16.49335,16.49335,0,0,0,6.64056,8.555,23.28485,23.28485,0,0,0,7.11094,3.19557c2.96264.79938,5.89553,1.89622,9.04548,1.83152a2.11647,2.11647,0,0,1,.70476.09042,30.39928,30.39928,0,0,0,6.49967.96744c2.597.28225,5.19935.51485,7.799.77252a2.97548,2.97548,0,0,1,.70184.11533,13.25339,13.25339,0,0,0,4.22909.51648,5.23565,5.23565,0,0,1,1.93269.25637,13.07506,13.07506,0,0,0,3.2889.7769,4.4164,4.4164,0,0,1,2.2325,1.02551,2.07427,2.07427,0,0,1,.1163,3.379,2.77941,2.77941,0,0,1-1.01208.707,21.39731,21.39731,0,0,1-5.352,1.27557c-1.60312.06875-3.20382.17971-4.805.24926-4.7547.2064-9.50681-.03235-14.257-.2533-.17777-.00809-.35424-.03947-.53128-.06082-2.236-.27045-4.38129-1.087-6.65973-1.1046a.84.84,0,0,1-.34712-.07327,42.08169,42.08169,0,0,0-4.76715-1.45885,32.84505,32.84505,0,0,1-10.68824-5.91009,12.004,12.004,0,0,0-1.273-.9642.62307.62307,0,0,0-.97116.41716,14.49223,14.49223,0,0,0-.12876,1.94782q-.01261,10.78674-.00453,21.57349c0,.41587.01537.83189.01133,1.24792a2.08387,2.08387,0,0,0,1.33138,2.10471,36.95467,36.95467,0,0,0,6.01814,2.19206c1.8899.48817,3.81038.86085,5.72342,1.25568a19.01415,19.01415,0,0,0,1.93973.25347c.53168.0537,1.0729.03106,1.60021.1087a76.89352,76.89352,0,0,0,8.70549.5933A70.32937,70.32937,0,0,0,308.61051,268.35039Z"/><path class="cls-2" d="M396.08665,267.89a44.187,44.187,0,0,0,8.47984-1.9737,43.26411,43.26411,0,0,0,6.34925-2.80461,22.35911,22.35911,0,0,0,7.21753-6.25058,17.84417,17.84417,0,0,0,3.72886-8.36516,1.6378,1.6378,0,0,1,.13766-.51421,5.96319,5.96319,0,0,0,.48533-2.78246c.01141-1.36648-.05556-2.73765.03534-4.09863a14.53558,14.53558,0,0,0-1.01466-5.38407,11.95459,11.95459,0,0,0-4.50949-6.25656,21.90375,21.90375,0,0,0-5.64311-2.98983,30.39115,30.39115,0,0,0-3.58564-1.02939c-2.03387-.42249-4.04784-.98312-6.10079-1.25778-1.706-.22839-3.38434-.59072-5.0829-.8238-2.35276-.32286-4.72768-.4817-7.08586-.76978-1.17772-.144-2.34637-.33838-3.5321-.4487-2.12679-.19782-4.22131-.6944-6.36825-.74179a.63.63,0,0,1-.17517-.03154,44.48787,44.48787,0,0,0-5.06567-.99753,7.76484,7.76484,0,0,1-3.21587-1.458,1.84392,1.84392,0,0,1,.08605-3.0309,7.5741,7.5741,0,0,1,3.76389-1.47195,9.08222,9.08222,0,0,0,1.41193-.18682,29.51568,29.51568,0,0,1,4.96053-.50564c2.37193-.02507,4.73795-.19426,7.11716-.02135,1.65771.12051,3.32214.13927,4.97508.36119,1.29467.17373,2.59677.29148,3.89523.43706a2.98785,2.98785,0,0,1,.87759.12843,27.42906,27.42906,0,0,0,4.4764,1.13711,33.31672,33.31672,0,0,1,13.46625,6.99141c.31525.27061.63956.53329.97924.772a.567.567,0,0,0,.95224-.34583,8.84567,8.84567,0,0,0,.11306-1.415q.0097-11.58766.00372-23.17533c-.00008-.23761-.01925-.47539-.01326-.71284a1.65978,1.65978,0,0,0-1.24363-1.75646c-1.55282-.42492-2.9-1.36228-4.495-1.67494a21.65949,21.65949,0,0,1-2.37993-.73888,3.46093,3.46093,0,0,0-.84362-.26981,15.08137,15.08137,0,0,1-4.18185-.76411,2.94283,2.94283,0,0,0-.35351-.04093,32.89365,32.89365,0,0,0-6.39551-.41958,36.72528,36.72528,0,0,1-5.50344-.44061,13.45886,13.45886,0,0,0-4.436.03251,25.99686,25.99686,0,0,1-4.43321.40842,33.69855,33.69855,0,0,0-4.80137.27272c-1.58355.24052-3.05662.97892-4.68579.97908a1.08537,1.08537,0,0,0-.339.10465,48.20087,48.20087,0,0,0-8.77455,3.87283,20.83842,20.83842,0,0,0-5.90961,5.34428,18.91083,18.91083,0,0,0-3.40673,7.77024c-.09067.466-.13822.94382-.26884,1.398a14.02123,14.02123,0,0,0-.20461,5.83552,32.84774,32.84774,0,0,0,.95862,4.52792,15.86994,15.86994,0,0,0,2.92836,5.84572,20.54991,20.54991,0,0,0,8.43762,5.77308,40.46358,40.46358,0,0,0,7.36594,2.01883,18.74322,18.74322,0,0,0,2.06339.52844,39.84529,39.84529,0,0,1,4.55849.647,56.52224,56.52224,0,0,0,7.07907.78094c1.95542.1391,3.87873.59411,5.84959.55319a1.312,1.312,0,0,1,.52311.09737,10.75457,10.75457,0,0,0,3.8649.51146,6.61441,6.61441,0,0,1,1.93852.19346,23.05693,23.05693,0,0,0,3.80577.91115A4.26346,4.26346,0,0,1,407.2,241.4957a1.80693,1.80693,0,0,1,.12019,2.57412,3.78069,3.78069,0,0,1-1.53107,1.19648,19.93346,19.93346,0,0,1-5.36151,1.24241c-1.42018.116-2.84456.2009-4.26879.24587-4.81519.15188-9.6261-.00114-14.43425-.26317a3.56153,3.56153,0,0,1-.70605-.09528c-1.4907-.39079-3.08978-.22677-4.52946-.88672a1.19958,1.19958,0,0,0-.52723-.07052,8.33477,8.33477,0,0,1-3.4513-.75894,7.3192,7.3192,0,0,0-1.36826-.3971,26.13173,26.13173,0,0,1-7.281-2.81368,22.49458,22.49458,0,0,1-5.82073-4.07162,3.18373,3.18373,0,0,0-.55432-.44206.60588.60588,0,0,0-.95547.41457,12.09889,12.09889,0,0,0-.12908,1.7694c-.011,3.68422-.0055,7.36861-.0055,11.05283h.00186c0,3.86247.03454,7.72543-.01932,11.58726a2.459,2.459,0,0,0,1.62091,2.65709c.10983.043.20688.11776.31542.16483a43.94322,43.94322,0,0,0,8.67249,2.60129,54.79347,54.79347,0,0,0,5.8098.86117c2.722.26074,5.44659.455,8.17365.54882A91.88067,91.88067,0,0,0,396.08665,267.89Z"/><path class="cls-2" d="M208.338,267.81176a53.29088,53.29088,0,0,0,9.09725.83108c2.19982-.00825,3.91439-.10627,5.635-.24554a39.19744,39.19744,0,0,0,13.04755-3.28324,36.05592,36.05592,0,0,0,8.31906-5.09082,34.06872,34.06872,0,0,0,9.26191-12.02414,41.02384,41.02384,0,0,0,2.19029-6.38969,28.4758,28.4758,0,0,0,.95935-4.52242,53.00849,53.00849,0,0,0,.3848-6.7512,45.80641,45.80641,0,0,0-.83561-9.0167c-.44562-2.03484-.96824-4.0404-1.59632-6.01345a35.38552,35.38552,0,0,0-7.09849-11.8294,33.89517,33.89517,0,0,0-7.12193-5.86868,38.86177,38.86177,0,0,0-7.04737-3.37722,13.13748,13.13748,0,0,0-3.94011-1.03682,17.78923,17.78923,0,0,0-7.00742-1.00238,11.86664,11.86664,0,0,1-2.9992-.368,4.94012,4.94012,0,0,0-2.64464-.04108,11.1339,11.1339,0,0,1-3.88512.39807c-2.91251-.22387-5.60422.85793-8.4014,1.306a2.72324,2.72324,0,0,0-.49528.19605c-.66593.25249-1.32151.54009-2.00168.74632a30.62446,30.62446,0,0,0-7.15914,3.534,29.56742,29.56742,0,0,0-8.23592,7.53618,28.98974,28.98974,0,0,0-2.66162,3.779c-.92975,1.79156-1.81438,3.59865-2.58545,5.46656a33.50562,33.50562,0,0,0-1.9876,7.18761c-.4369,2.56571-.52861,5.19223-.72773,7.79547a16.78239,16.78239,0,0,0,.05775,2.31289q.09438,1.50963.25185,3.01522a26.51748,26.51748,0,0,0,.50127,4.05738c.48444,1.82666.82914,3.682,1.49976,5.48048a33.61366,33.61366,0,0,0,12.01364,16.60221,19.25226,19.25226,0,0,0,2.50149,1.69662,56.8034,56.8034,0,0,0,5.5662,2.79458c1.10574.46294,2.27116.68939,3.36606,1.1355A15.777,15.777,0,0,0,208.338,267.81176Zm7.89236-21.72231a8.0148,8.0148,0,0,1-2.97737-.44562,2.70856,2.70856,0,0,0-1.04589-.18893c-2.46332.0241-4.57062-1.19033-6.78436-1.98712a15.76665,15.76665,0,0,1-4.70455-3.1574,14.26684,14.26684,0,0,1-3.63651-5.19094,16.86027,16.86027,0,0,1-1.05009-4.46435,16.18881,16.18881,0,0,1,.05759-4.42893,11.34574,11.34574,0,0,1,2.31741-5.86884,12.89419,12.89419,0,0,1,5.935-4.37976c1.28561-.45112,2.58367-.87136,3.89273-1.24759a6.80974,6.80974,0,0,1,1.75419-.24586c1.90043-.02993,3.80134-.01116,5.70224-.01116v-.0681c.95046,0,1.90188.02717,2.85137-.00518a27.31382,27.31382,0,0,1,8.22087,1.2442,24.91235,24.91235,0,0,1,5.7608,2.305,14.53518,14.53518,0,0,1,5.32212,4.88669,12.32174,12.32174,0,0,1,2.27261,6.99431,11.00851,11.00851,0,0,0,.01327,1.42439,13.92747,13.92747,0,0,1-1.246,6.21709,5.90891,5.90891,0,0,1-.93331,1.71263,14.92652,14.92652,0,0,1-3.95855,3.80182,16.11307,16.11307,0,0,1-6.79261,2.4617,1.30827,1.30827,0,0,0-.35213.049c-2.29445.8327-4.691.59589-7.05546.65768C218.60731,246.18505,217.41827,246.11905,216.23037,246.08945Z"/><path class="cls-2" d="M691.89574,217.16708v48.34069c.20914.85534.79743.95611,2.43614.9608,3.92362.01165,7.84739.00453,11.771.00113a10.02486,10.02486,0,0,0,1.24589-.0503,1.22161,1.22161,0,0,0,1.24905-1.252c.0571-.58942.04472-1.18661.04489-1.7804q.00351-13.99308.00072-27.98631-.00387-9.80387-.02345-19.60805a17.08119,17.08119,0,0,0-.44716-4.05755c-.3083-1.26474-.66092-2.52187-.92765-3.7947a15.09788,15.09788,0,0,0-1.51723-3.97667,20.62379,20.62379,0,0,0-10.416-9.55371c-1.25649-.53362-2.55374-.91487-3.85172-1.32459a18.19453,18.19453,0,0,0-5.6022-.87265,19.76928,19.76928,0,0,1-4.25-.41861,8.42562,8.42562,0,0,0-3.01562-.12034,60.63879,60.63879,0,0,1-8.53112.55238,24.66184,24.66184,0,0,0-7.91322.98555,1.40637,1.40637,0,0,1-.52836.06891,12.86,12.86,0,0,0-4.51781.85567,23.02364,23.02364,0,0,0-4.73545,1.52677,1.3484,1.3484,0,0,1-.34049.10077,27.15491,27.15491,0,0,0-4.778,1.93051c-2.152.96421-2.2016,1.169-2.204,3.54382q-.01043,10.0715-.00162,20.143c.00008.35634.00081.71348.0233,1.06885.0262.41732.05111.88252.51364,1.04654.37292.13215.67725-.14283.94139-.38449.56969-.52132,1.09773-1.09263,1.69719-1.576a32.68577,32.68577,0,0,1,11.65551-6.34067,16.15375,16.15375,0,0,1,2.02158-.659,24.1141,24.1141,0,0,0,3.29844-.75489c1.78526-.51065,3.65268-.44126,5.45525-.83674a12.22672,12.22672,0,0,1,2.47884-.23552c2.972-.03121,5.94487.001,8.9169-.03315a21.22253,21.22253,0,0,1,5.05054.69941,3.88783,3.88783,0,0,1,4.8008,3.79146Z"/><path class="cls-2" d="M679.517,249.10224a4.24373,4.24373,0,0,0-.6661.24829,13.57649,13.57649,0,0,1-4.64988,1.0949,23.174,23.174,0,0,0-2.99993.39629,28.93,28.93,0,0,1-10.62492-.49949,4.77009,4.77009,0,0,1-2.12161-8.21246,9.27889,9.27889,0,0,1,4.48133-2.03565,14.72009,14.72009,0,0,0,3.82746-.80035,2.02138,2.02138,0,0,1,.86682-.17065,18.04143,18.04143,0,0,0,5.06623-.85308,54.9958,54.9958,0,0,0,9.16956-2.8326c.756-.31282,1.50041-.64328,2.22958-.998V223.38159c-.60519.17841-1.2133.34437-1.81792.5092a75.37049,75.37049,0,0,1-8.39056,1.61137c-2.1665.33337-4.41178.07052-6.51318.87087a1.1894,1.1894,0,0,1-.35375.03478,57.49158,57.49158,0,0,0-8.29116,1.09959,38.632,38.632,0,0,0-8.31745,2.56991,16.707,16.707,0,0,0-9.1613,9.02479,23.73847,23.73847,0,0,0-1.49264,7.11255,25.02585,25.02585,0,0,0,.77074,7.23516,17.71487,17.71487,0,0,0,.98976,3.40617A18.72488,18.72488,0,0,0,653.207,267.35691a26.22773,26.22773,0,0,0,7.89462,1.2429,38.49559,38.49559,0,0,0,14.03077-1.92808,31.94718,31.94718,0,0,0,6.55062-3.16985,29.36271,29.36271,0,0,0,2.41261-1.728V247.25633A14.86434,14.86434,0,0,1,679.517,249.10224Z"/><path class="cls-2" d="M767.583,266.47245q1.42689,0,2.85387-.00032c1.66467-.00259,3.32942-.01488,4.994-.00728a2.11371,2.11371,0,0,0,1.94628-1.02906c.41-.65364.83779-1.29677,1.27161-1.935,2.57379-3.78564,4.8012-7.78156,7.0206-11.77489,1.92978-3.47217,3.68834-7.04074,5.47133-10.59232,1.06433-2.12008,2.069-4.27236,3.03172-6.44064,1.85416-4.17562,3.53492-8.42533,5.30465-12.63589,1.24582-2.96411,2.14734-6.03772,3.3109-9.02317.66577-1.70826,1.12547-3.49546,1.74579-5.22265a52.758,52.758,0,0,0,1.78784-5.78246c.50095-2.1395,1.27534-4.20119,1.69419-6.36526.27255-1.40805.23745-1.57239-1.10654-1.647-.17793-.00987-.35667-.00841-.53492-.00841q-10.88016-.0005-21.76048.00356a8.06,8.06,0,0,0-1.241.09009,1.0052,1.0052,0,0,0-.85963.79986c-.08217.344-.09228.7046-.14784,1.05576-.37081,2.34492-.69294,4.69938-1.13873,7.03006a22.75985,22.75985,0,0,0-.64871,4.03474,2.2135,2.2135,0,0,1-.11177.70119,47.779,47.779,0,0,0-1.28609,5.71648c-.39451,1.79593-.91745,3.559-1.25616,5.37291-.15917.85292-.54769,1.68707-.68518,2.56765a64.6947,64.6947,0,0,1-1.87212,7.04381c-.71955,2.63008-1.60134,5.21633-2.42887,7.81633q-.59322,1.86363-1.2484,3.70719-1.0763,3.01489-2.2016,6.01232a9.11571,9.11571,0,0,1-.71284,1.42649.34774.34774,0,0,1-.59719.02038,5.16034,5.16034,0,0,1-.62452-1.065c-.83173-1.96545-1.63507-3.943-2.46074-5.91123-.459-1.09392-1.02583-2.14984-1.39915-3.2711-1.16413-3.49611-2.77437-6.81024-4.10178-10.23922-1.00626-2.59935-2.12324-5.15584-3.18724-7.73287q-1.868-4.524-3.73113-9.05034c-.385-.93137-.794-1.8532-1.17529-2.78618q-2.05336-5.02458-4.09621-10.05369c-.29115-.71365-.60673-1.41743-.89117-2.13367a1.71536,1.71536,0,0,0-1.81542-1.1486c-.17817.00518-.35667-.00647-.53508-.00663q-6.59947-.00072-13.19895.00243a7.94033,7.94033,0,0,0-1.24209.08233.666.666,0,0,0-.603.75522,6.23342,6.23342,0,0,0,.33984,1.55621c.64838,1.65456,1.3393,3.293,2.03111,4.93036.39258.92911.844,1.83378,1.22479,2.76758,1.16575,2.85815,2.30205,5.72828,3.4665,8.58708.51437,1.26312,1.08593,2.50279,1.60167,3.76526,1.09943,2.69139,2.15793,5.3996,3.27418,8.08387.86554,2.08127,1.90334,4.09686,2.66672,6.21306,1.06846,2.962,2.31168,5.84619,3.54229,8.739.55707,1.30971,1.10743,2.62281,1.63887,3.943.59686,1.48294,1.14464,2.98594,1.75727,4.46241.99963,2.40913,2.05118,4.79659,3.05032,7.20589,1.36405,3.2889,2.72164,6.58087,4.03425,9.89031a2.0592,2.0592,0,0,0,2.16974,1.47389c.35634-.01035.71333.0055,1.07.00566Q764.28327,266.47319,767.583,266.47245Z"/><path class="cls-2" d="M132.44581,218.86807q-.00025-11.2276-.00372-22.45521c-.00275-2.26986-.1396-2.39845-2.44634-2.40363q-5.97325-.0131-11.94667,0a14.16349,14.16349,0,0,0-1.42358.05855.97533.97533,0,0,0-.94285.91067,21.01583,21.01583,0,0,0-.09349,2.13173q-.00656,32.97-.00291,65.94009c0,.53459-.0144,1.071.02167,1.60345.09349,1.38055.47167,1.73333,1.88425,1.81.11856.00647.23761.00615.3565.00615,4.10106.00048,8.20228.01358,12.30333-.005,1.99456-.00906,2.26922-.29439,2.28863-2.26938q.03688-3.74229.02928-7.4849a20.7274,20.7274,0,0,1,.48105-5.13093,5.19482,5.19482,0,0,0,.14768-1.41339,26.65569,26.65569,0,0,1,.92182-6.331,38.89888,38.89888,0,0,1,1.77183-6.51359,41.76342,41.76342,0,0,1,1.946-4.76877,31.73591,31.73591,0,0,1,6.47881-8.64774,26.45427,26.45427,0,0,1,12.97654-6.25882,7.96754,7.96754,0,0,0,1.387-.30636,6.677,6.677,0,0,1,2.45152-.369c1.783-.00145,3.566.00243,5.34913-.0055a10.89341,10.89341,0,0,0,1.421-.06939.985.985,0,0,0,.90727-.94706,11.16683,11.16683,0,0,0,.06793-1.42131q.00608-9.62359.00081-19.24734a10.00945,10.00945,0,0,0-.04675-1.24517,1.285,1.285,0,0,0-1.25325-1.27816,7.87568,7.87568,0,0,0-3.36185.1218,11.88191,11.88191,0,0,1-3.34066.45387,5.44748,5.44748,0,0,0-1.92792.28744c-.663.25928-1.33607.49755-2.017.70475a30.36015,30.36015,0,0,0-9.08495,4.79546,36.88066,36.88066,0,0,0-9.24283,10.26251,70.7509,70.7509,0,0,0-4.65344,9.01071,6.94772,6.94772,0,0,1-1.40384,2.69026C132.44581,220.15642,132.446,219.51232,132.44581,218.86807Z"/></svg>